<svg width="1280" height="200" viewBox="0 0 1280 200" fill="none" xmlns="http://www.w3.org/2000/svg">
<path fill-rule="evenodd" clip-rule="evenodd" d="M0 0V200H1280V0H0Z" fill="white"/>
<path fill-rule="evenodd" clip-rule="evenodd" d="M0 0V200H1280V0H0Z" fill="#006BE8"/>
<path fill-rule="evenodd" clip-rule="evenodd" d="M0 0V200H1280V0H0Z" fill="url(#paint0_linear)"/>
<path d="M136 142.857C89.6771 143.124 44.4828 146.647 0 158.929V200L445.09 199.113C422.169 192.125 398.548 184.924 376 178.571C299.115 157.345 218.245 142.323 136 142.857Z" fill="url(#paint1_linear)"/>
<path d="M441.757 198.619L0.5 199.499V159.309C44.8049 147.126 89.8291 143.623 136.003 143.357L136.003 143.357C218.186 142.824 299.008 157.834 375.866 179.053C397.364 185.11 419.839 191.939 441.757 198.619Z" stroke="white" stroke-opacity="0.08"/>
<path d="M136 142.857C89.6771 143.124 44.4828 152.004 0 164.286V75C47.2 61.8762 95.04 54.6654 144 57.1429C222.56 61.1604 296.48 82.4353 368 107.143C465.448 141.294 572.301 168.28 675.002 200H440C417.08 193.013 398.548 184.924 376 178.571C299.115 157.345 218.245 142.323 136 142.857Z" fill="url(#paint2_linear)"/>
<path d="M376.136 178.09L376.133 178.089C299.222 156.856 218.303 141.823 135.997 142.357C89.833 142.623 44.8008 151.431 0.5 163.629V75.3801C47.5429 62.3314 95.2071 55.1746 143.974 57.6422C222.463 61.6561 296.329 82.9121 367.836 107.615C428.723 128.953 493.298 147.5 558.223 166.146C596.146 177.038 634.187 187.964 671.683 199.5H440.075C429.637 196.316 420.11 192.903 410.684 189.527C409.798 189.21 408.913 188.893 408.029 188.577C397.712 184.887 387.428 181.272 376.136 178.09Z" stroke="white" stroke-opacity="0.08"/>
<path d="M368 107.143C296.48 82.4352 222.56 61.1603 144 57.1428C95.04 54.6654 47.2 61.8762 0 75V0H312L531 91.5973C531 91.5973 599.611 125.777 768 167.175C936.389 208.574 1115.37 197.169 1280 152.649V200H675.002C572.301 168.279 465.448 141.294 368 107.143Z" fill="url(#paint3_linear)"/>
<path d="M144.026 56.6435L144.025 56.6435C95.2185 54.1738 47.5328 61.3194 0.5 74.3423V0.5H311.9L530.781 92.0466L530.79 92.0515L530.792 92.0523L530.829 92.0706C530.863 92.0875 530.914 92.1126 530.982 92.1458C531.049 92.1781 531.131 92.2181 531.229 92.2656C531.333 92.316 531.455 92.3749 531.596 92.4422C532.142 92.7037 532.963 93.0922 534.068 93.6009C536.277 94.6185 539.62 96.1174 544.156 98.0449C553.228 101.9 567.076 107.469 586.185 114.332C624.404 128.058 683.67 146.958 767.881 167.661C936.154 209.031 1114.98 197.698 1279.5 153.302V199.5H675.078C636.537 187.597 597.426 176.365 558.452 165.171C493.552 146.532 429.032 128.002 368.165 106.671L368.163 106.67C296.63 81.9582 222.657 60.6646 144.026 56.6435Z" stroke="white" stroke-opacity="0.08"/>
<path d="M370.537 24.8984C368 21.7898 366.457 23.1339 364.377 22.2516C344 14.5265 330.392 6.82124 312 0H504C578.846 35.3208 654.156 66.9622 738.994 89.7702C905.938 134.681 1084.17 130.283 1249.51 86.2387C1259.75 83.5068 1269.84 80.6415 1280 77.6431V152.649C1115.37 197.169 936.389 208.574 768 167.175C623.529 131.681 496 79.8958 370.537 24.8984Z" fill="url(#paint4_linear)"/>
<path d="M364.572 21.7913L364.564 21.7875L364.554 21.7841C354.385 17.9288 345.903 14.0782 337.656 10.3342L337.651 10.3316C330.179 6.9393 322.897 3.63335 314.74 0.5H503.888C578.713 35.8074 654.024 67.4443 738.864 90.253C905.901 135.188 1084.22 130.786 1249.64 86.7218L1249.51 86.2387L1249.64 86.7218C1259.67 84.046 1269.55 81.2426 1279.5 78.3117V152.266C1115.04 196.686 936.284 208.033 768.119 166.69L768 167.175L768.119 166.69C623.733 131.217 496.268 79.4648 370.847 24.4883C369.545 22.9256 368.444 22.4288 367.369 22.2471C367.025 22.1889 366.667 22.1622 366.338 22.1377C366.188 22.1265 366.043 22.1157 365.909 22.1026C365.457 22.0584 365.027 21.984 364.572 21.7913Z" stroke="white" stroke-opacity="0.08"/>
<path d="M738.994 89.7702C905.938 134.681 1084.17 130.283 1249.51 86.2387C1259.75 83.5068 1269.84 80.6415 1280 77.6431V0C1248.89 10.6097 1216.98 16.1486 1184.6 23.3503C1029.83 57.8156 840.231 44.4962 688 0H504C578.846 35.3208 654.156 66.9621 738.994 89.7702Z" fill="url(#paint5_linear)"/>
<path d="M739.124 89.2873C655.089 66.6953 580.402 35.431 506.233 0.5H687.928C840.214 44.9997 1029.86 58.3197 1184.71 23.8383C1192.13 22.1867 1199.54 20.6218 1206.92 19.0624C1231.46 13.8766 1255.71 8.75148 1279.5 0.697973V77.2692C1269.46 80.2284 1259.5 83.0571 1249.38 85.7555C1084.11 129.779 905.974 134.173 739.124 89.2874L738.996 89.7641L739.124 89.2873Z" stroke="white" stroke-opacity="0.08"/>
<path d="M688 0C840.231 44.4962 1029.83 57.8156 1184.6 23.3503C1216.98 16.1486 1248.89 10.6097 1280 0H688Z" fill="url(#paint6_linear)"/>
<path d="M1184.6 23.3495L1184.49 22.8622C1030.96 57.0519 843.1 44.1907 691.516 0.5H1276.94C1253.94 8.10466 1230.51 13.0551 1206.75 18.0756C1199.36 19.6371 1191.94 21.2053 1184.49 22.8622L1184.6 23.3495Z" stroke="white" stroke-opacity="0.08"/>
<g opacity="0.32">
<path fill-rule="evenodd" clip-rule="evenodd" d="M0 0V200H1280V0H0Z" fill="#006BE8"/>
<path fill-rule="evenodd" clip-rule="evenodd" d="M0 0V200H1280V0H0Z" fill="url(#paint7_linear)"/>
</g>
<path d="M436.294 148H433.34V140.418H425.712V148H422.747V130.938H425.712V138.039H433.34V130.938H436.294V148ZM457.462 140.383H450.454V145.633H458.645V148H447.489V130.938H458.563V133.328H450.454V138.039H457.462V140.383ZM478.29 144.027H471.681L470.298 148H467.216L473.661 130.938H476.322L482.779 148H479.685L478.29 144.027ZM472.513 141.637H477.458L474.986 134.559L472.513 141.637ZM492.404 148V130.938H497.443C498.951 130.938 500.287 131.273 501.451 131.945C502.623 132.617 503.529 133.57 504.17 134.805C504.81 136.039 505.13 137.453 505.13 139.047V139.902C505.13 141.52 504.806 142.941 504.158 144.168C503.517 145.395 502.599 146.34 501.404 147.004C500.216 147.668 498.853 148 497.314 148H492.404ZM495.369 133.328V145.633H497.302C498.857 145.633 500.048 145.148 500.877 144.18C501.712 143.203 502.138 141.805 502.154 139.984V139.035C502.154 137.184 501.752 135.77 500.947 134.793C500.142 133.816 498.974 133.328 497.443 133.328H495.369ZM518.892 148H515.939V130.938H518.892V148ZM543.752 148H540.787L533.182 135.895V148H530.217V130.938H533.182L540.811 143.09V130.938H543.752V148ZM568.014 145.785C567.397 146.59 566.542 147.199 565.448 147.613C564.354 148.027 563.112 148.234 561.721 148.234C560.292 148.234 559.026 147.91 557.924 147.262C556.823 146.613 555.971 145.688 555.37 144.484C554.776 143.273 554.467 141.863 554.444 140.254V138.918C554.444 136.34 555.061 134.328 556.295 132.883C557.53 131.43 559.253 130.703 561.463 130.703C563.362 130.703 564.87 131.172 565.987 132.109C567.104 133.047 567.776 134.398 568.003 136.164H565.096C564.768 134.109 563.577 133.082 561.522 133.082C560.194 133.082 559.182 133.562 558.487 134.523C557.799 135.477 557.444 136.879 557.42 138.73V140.043C557.42 141.887 557.807 143.32 558.581 144.344C559.362 145.359 560.444 145.867 561.827 145.867C563.342 145.867 564.42 145.523 565.061 144.836V141.496H561.545V139.246H568.014V145.785ZM601.527 143.605C601.527 142.855 601.261 142.277 600.73 141.871C600.206 141.465 599.257 141.055 597.882 140.641C596.507 140.227 595.413 139.766 594.601 139.258C593.046 138.281 592.269 137.008 592.269 135.438C592.269 134.062 592.827 132.93 593.945 132.039C595.07 131.148 596.527 130.703 598.316 130.703C599.503 130.703 600.562 130.922 601.491 131.359C602.421 131.797 603.152 132.422 603.683 133.234C604.214 134.039 604.48 134.934 604.48 135.918H601.527C601.527 135.027 601.245 134.332 600.683 133.832C600.128 133.324 599.331 133.07 598.292 133.07C597.323 133.07 596.57 133.277 596.03 133.691C595.499 134.105 595.234 134.684 595.234 135.426C595.234 136.051 595.523 136.574 596.101 136.996C596.679 137.41 597.632 137.816 598.96 138.215C600.288 138.605 601.355 139.055 602.159 139.562C602.964 140.062 603.554 140.641 603.929 141.297C604.304 141.945 604.491 142.707 604.491 143.582C604.491 145.004 603.945 146.137 602.851 146.98C601.765 147.816 600.288 148.234 598.421 148.234C597.187 148.234 596.05 148.008 595.011 147.555C593.98 147.094 593.175 146.461 592.597 145.656C592.027 144.852 591.741 143.914 591.741 142.844H594.706C594.706 143.812 595.027 144.562 595.667 145.094C596.308 145.625 597.226 145.891 598.421 145.891C599.452 145.891 600.226 145.684 600.741 145.27C601.265 144.848 601.527 144.293 601.527 143.605ZM627.253 130.938V142.34C627.253 144.152 626.671 145.59 625.507 146.652C624.351 147.707 622.808 148.234 620.878 148.234C618.925 148.234 617.375 147.715 616.226 146.676C615.078 145.629 614.503 144.18 614.503 142.328V130.938H617.457V142.352C617.457 143.492 617.746 144.363 618.324 144.965C618.902 145.566 619.753 145.867 620.878 145.867C623.16 145.867 624.3 144.664 624.3 142.258V130.938H627.253ZM638.109 148V130.938H643.957C645.887 130.938 647.355 131.324 648.363 132.098C649.371 132.871 649.875 134.023 649.875 135.555C649.875 136.336 649.664 137.039 649.242 137.664C648.82 138.289 648.203 138.773 647.39 139.117C648.312 139.367 649.023 139.84 649.523 140.535C650.031 141.223 650.285 142.051 650.285 143.02C650.285 144.621 649.769 145.852 648.738 146.711C647.715 147.57 646.246 148 644.332 148H638.109ZM641.074 140.301V145.633H644.367C645.297 145.633 646.023 145.402 646.547 144.941C647.07 144.48 647.332 143.84 647.332 143.02C647.332 141.246 646.426 140.34 644.613 140.301H641.074ZM641.074 138.121H643.98C644.902 138.121 645.621 137.914 646.137 137.5C646.66 137.078 646.922 136.484 646.922 135.719C646.922 134.875 646.68 134.266 646.195 133.891C645.719 133.516 644.972 133.328 643.957 133.328H641.074V138.121ZM672.93 133.328H667.609V148H664.668V133.328H659.395V130.938H672.93V133.328ZM685.989 148H683.036V130.938H685.989V148ZM709.29 133.328H703.969V148H701.028V133.328H695.755V130.938H709.29V133.328ZM722.185 145.633H729.931V148H719.22V130.938H722.185V145.633ZM749.857 140.383H742.849V145.633H751.04V148H739.884V130.938H750.958V133.328H742.849V138.039H749.857V140.383ZM786.416 133.328H781.096V148H778.154V133.328H772.881V130.938H786.416V133.328ZM806.319 140.383H799.311V145.633H807.502V148H796.346V130.938H807.42V133.328H799.311V138.039H806.319V140.383ZM823.467 137.102L827.053 130.938H830.475L825.319 139.398L830.592 148H827.135L823.467 141.742L819.788 148H816.342L821.628 139.398L816.46 130.938H819.882L823.467 137.102ZM852.792 133.328H847.472V148H844.53V133.328H839.257V130.938H852.792V133.328Z" fill="white"/>
<path d="M445.439 98H437.845V83.1562H421.47V98H413.876V61.5938H421.47V77.0625H437.845V61.5938H445.439V98ZM481.215 82.25H465.527V91.9375H483.902V98H457.934V61.5938H483.809V67.7188H465.527V76.1562H481.215V82.25ZM516.335 90.2188H501.272L498.304 98H490.647L505.366 61.5938H512.335L526.991 98H519.304L516.335 90.2188ZM503.491 84.4375H514.116L508.804 70.625L503.491 84.4375ZM536.111 98V61.5938H547.955C551.372 61.5938 554.424 62.3125 557.111 63.75C559.82 65.1875 561.924 67.2188 563.424 69.8438C564.924 72.4479 565.695 75.4062 565.736 78.7188V80.625C565.736 84.0208 564.986 87.0417 563.486 89.6875C562.007 92.3333 559.893 94.3854 557.143 95.8438C554.413 97.2812 551.299 98 547.799 98H536.111ZM543.705 67.7188V91.9375H547.768C554.58 91.9375 558.049 88.3125 558.174 81.0625V78.9688C558.174 71.6354 554.934 67.8854 548.455 67.7188H543.705ZM585.075 98H577.513V61.5938H585.075V98ZM629.57 98H622.008L605.633 73.1562V98H598.039V61.5938H605.633L622.008 86.4688V61.5938H629.57V98ZM672.659 93.4062L671.94 94.1562C668.815 97.0521 664.138 98.5 657.909 98.5C652.742 98.5 648.638 96.9271 645.596 93.7812C642.555 90.6354 641.034 86.3021 641.034 80.7812V78.75C641.034 73.2292 642.482 68.9062 645.378 65.7812C648.273 62.6562 652.263 61.0938 657.346 61.0938C661.825 61.0938 665.367 62.1146 667.971 64.1562C670.575 66.1771 672.138 69.1875 672.659 73.1875H665.253C664.878 71.1042 664.055 69.5833 662.784 68.625C661.534 67.6667 659.784 67.1875 657.534 67.1875C651.617 67.1875 648.659 71.0938 648.659 78.9062V80.9062C648.659 84.7188 649.492 87.5938 651.159 89.5312C652.825 91.4688 655.2 92.4375 658.284 92.4375C661.367 92.4375 663.638 91.8438 665.096 90.6562V84.4062H657.315V78.875H672.659V93.4062ZM734.461 67.7188H722.399V98H714.805V67.7188H702.899V61.5938H734.461V67.7188ZM752.487 98H744.925V61.5938H752.487V98ZM794.451 67.7188H782.389V98H774.795V67.7188H762.889V61.5938H794.451V67.7188ZM812.04 91.9375H829.384V98H804.446V61.5938H812.04V91.9375ZM862.66 82.25H846.973V91.9375H865.348V98H839.379V61.5938H865.254V67.7188H846.973V76.1562H862.66V82.25Z" fill="white"/>
<defs>
<linearGradient id="paint0_linear" x1="1280" y1="28.1249" x2="-14.2157" y2="174.88" gradientUnits="userSpaceOnUse">
<stop stop-color="white" stop-opacity="0.32"/>
<stop offset="1" stop-color="white" stop-opacity="0.08"/>
</linearGradient>
<linearGradient id="paint1_linear" x1="2.58026e-07" y1="171" x2="321" y2="200" gradientUnits="userSpaceOnUse">
<stop stop-color="white" stop-opacity="0.16"/>
<stop offset="1" stop-color="white" stop-opacity="0"/>
</linearGradient>
<linearGradient id="paint2_linear" x1="-4.67434e-08" y1="164" x2="675" y2="152" gradientUnits="userSpaceOnUse">
<stop stop-color="white" stop-opacity="0.16"/>
<stop offset="1" stop-color="white" stop-opacity="0"/>
</linearGradient>
<linearGradient id="paint3_linear" x1="-3.9772e-07" y1="152" x2="1280" y2="100" gradientUnits="userSpaceOnUse">
<stop stop-color="white" stop-opacity="0.16"/>
<stop offset="1" stop-color="white" stop-opacity="0"/>
</linearGradient>
<linearGradient id="paint4_linear" x1="1280" y1="126" x2="341" y2="144" gradientUnits="userSpaceOnUse">
<stop stop-color="white" stop-opacity="0.16"/>
<stop offset="1" stop-color="white" stop-opacity="0"/>
</linearGradient>
<linearGradient id="paint5_linear" x1="504" y1="102" x2="1280" y2="78" gradientUnits="userSpaceOnUse">
<stop stop-color="white" stop-opacity="0.16"/>
<stop offset="1" stop-color="white" stop-opacity="0"/>
</linearGradient>
<linearGradient id="paint6_linear" x1="959" y1="43" x2="1003" y2="7.96604e-06" gradientUnits="userSpaceOnUse">
<stop stop-color="white" stop-opacity="0.16"/>
<stop offset="1" stop-color="white" stop-opacity="0"/>
</linearGradient>
<linearGradient id="paint7_linear" x1="1280" y1="28.1249" x2="-14.2157" y2="174.88" gradientUnits="userSpaceOnUse">
<stop stop-color="white" stop-opacity="0.32"/>
<stop offset="1" stop-color="white" stop-opacity="0.08"/>
</linearGradient>
</defs>
</svg>
